<svg width="138" height="35" viewBox="0 0 138 35" fill="none" xmlns="http://www.w3.org/2000/svg">
<path d="M9.96946 27.358C8.06889 27.358 6.38139 27.0384 4.90696 26.3991C3.44105 25.7599 2.29048 24.8864 1.45526 23.7784C0.628551 22.6619 0.21946 21.3963 0.227983 19.9815C0.21946 18.8821 0.458097 17.8722 0.943892 16.9517C1.42969 16.0312 2.08594 15.2642 2.91264 14.6506C3.74787 14.0284 4.67685 13.6321 5.69957 13.4616V13.2827C4.35298 12.9844 3.26207 12.2983 2.42685 11.2244C1.60014 10.142 1.19105 8.89346 1.19957 7.47869C1.19105 6.1321 1.56605 4.9304 2.32457 3.87358C3.0831 2.81676 4.12287 1.98579 5.44389 1.38068C6.76492 0.767045 8.27344 0.460226 9.96946 0.460226C11.6484 0.460226 13.1442 0.767045 14.4567 1.38068C15.7777 1.98579 16.8175 2.81676 17.576 3.87358C18.343 4.9304 18.7266 6.1321 18.7266 7.47869C18.7266 8.89346 18.3047 10.142 17.4609 11.2244C16.6257 12.2983 15.5476 12.9844 14.2266 13.2827V13.4616C15.2493 13.6321 16.1697 14.0284 16.9879 14.6506C17.8146 15.2642 18.4709 16.0312 18.9567 16.9517C19.451 17.8722 19.6982 18.8821 19.6982 19.9815C19.6982 21.3963 19.2805 22.6619 18.4453 23.7784C17.6101 24.8864 16.4595 25.7599 14.9936 26.3991C13.5362 27.0384 11.8615 27.358 9.96946 27.358ZM9.96946 23.7017C10.9496 23.7017 11.8018 23.5355 12.5263 23.2031C13.2507 22.8622 13.8132 22.3849 14.2138 21.7713C14.6143 21.1577 14.8189 20.4503 14.8274 19.6491C14.8189 18.8139 14.6016 18.0767 14.1754 17.4375C13.7578 16.7898 13.1825 16.2827 12.4496 15.9162C11.7251 15.5497 10.8984 15.3665 9.96946 15.3665C9.03196 15.3665 8.19673 15.5497 7.46378 15.9162C6.73082 16.2827 6.15128 16.7898 5.72514 17.4375C5.30753 18.0767 5.10298 18.8139 5.11151 19.6491C5.10298 20.4503 5.29901 21.1577 5.69957 21.7713C6.10014 22.3764 6.66264 22.8494 7.38707 23.1903C8.12003 23.5312 8.98082 23.7017 9.96946 23.7017ZM9.96946 11.7741C10.7706 11.7741 11.478 11.6122 12.0916 11.2884C12.7138 10.9645 13.2038 10.5128 13.5618 9.93324C13.9197 9.35369 14.103 8.68466 14.1115 7.92614C14.103 7.17614 13.924 6.51989 13.5746 5.95739C13.2251 5.38636 12.7393 4.94744 12.1172 4.64062C11.495 4.32528 10.7791 4.16761 9.96946 4.16761C9.14276 4.16761 8.41406 4.32528 7.78338 4.64062C7.16122 4.94744 6.67543 5.38636 6.32599 5.95739C5.98509 6.51989 5.81889 7.17614 5.82741 7.92614C5.81889 8.68466 5.98935 9.35369 6.33878 9.93324C6.69673 10.5043 7.18679 10.956 7.80895 11.2884C8.43963 11.6122 9.1598 11.7741 9.96946 11.7741ZM44.1829 21.6179L50.0124 7.36364H53.7454L45.8065 27H42.5721L34.8121 7.36364H38.5067L44.1829 21.6179ZM37.3434 7.36364V27H32.8817V7.36364H37.3434ZM51.2141 27V7.36364H55.6374V27H51.2141ZM65.9542 27.3963C64.7099 27.3963 63.5891 27.1747 62.592 26.7315C61.6033 26.2798 60.8192 25.6151 60.2397 24.7372C59.6687 23.8594 59.3832 22.777 59.3832 21.4901C59.3832 20.3821 59.5877 19.4659 59.9968 18.7415C60.4059 18.017 60.9641 17.4375 61.6715 17.0028C62.3789 16.5682 63.1758 16.2401 64.0621 16.0185C64.957 15.7884 65.8817 15.6222 66.8363 15.5199C67.9869 15.4006 68.9201 15.294 69.636 15.2003C70.3519 15.098 70.8718 14.9446 71.1957 14.7401C71.5281 14.527 71.6942 14.1989 71.6942 13.7557V13.679C71.6942 12.7159 71.4087 11.9702 70.8377 11.4418C70.2667 10.9134 69.4442 10.6491 68.3704 10.6491C67.2369 10.6491 66.3377 10.8963 65.6729 11.3906C65.0167 11.8849 64.5735 12.4687 64.3434 13.142L60.0224 12.5284C60.3633 11.3352 60.9258 10.3381 61.7099 9.53693C62.494 8.72727 63.4528 8.12216 64.5863 7.72159C65.7198 7.3125 66.9727 7.10795 68.3448 7.10795C69.2908 7.10795 70.2326 7.21875 71.1701 7.44034C72.1076 7.66193 72.9641 8.02841 73.7397 8.53977C74.5153 9.04261 75.1374 9.72869 75.6062 10.598C76.0835 11.4673 76.3221 12.554 76.3221 13.858V27H71.8732V24.3026H71.7198C71.4386 24.848 71.0423 25.3594 70.5309 25.8366C70.0281 26.3054 69.3931 26.6847 68.6261 26.9744C67.8675 27.2557 66.9769 27.3963 65.9542 27.3963ZM67.1559 23.9957C68.0849 23.9957 68.8903 23.8125 69.5721 23.446C70.2539 23.071 70.7781 22.5767 71.1445 21.9631C71.5195 21.3494 71.707 20.6804 71.707 19.956V17.642C71.5621 17.7614 71.315 17.8722 70.9656 17.9744C70.6246 18.0767 70.2411 18.1662 69.815 18.2429C69.3888 18.3196 68.967 18.3878 68.5494 18.4474C68.1317 18.5071 67.7695 18.5582 67.4627 18.6009C66.7724 18.6946 66.1545 18.848 65.609 19.0611C65.0636 19.2741 64.6332 19.5724 64.3178 19.956C64.0025 20.331 63.8448 20.8168 63.8448 21.4134C63.8448 22.2656 64.1559 22.9091 64.7781 23.3438C65.4002 23.7784 66.1928 23.9957 67.1559 23.9957ZM80.9755 34.3636V7.36364H85.5266V10.6108H85.7951C86.0337 10.1335 86.3704 9.62642 86.805 9.08949C87.2397 8.54403 87.8278 8.07954 88.5692 7.69602C89.3107 7.30398 90.2567 7.10795 91.4073 7.10795C92.9244 7.10795 94.2923 7.49574 95.511 8.27131C96.7383 9.03835 97.7099 10.1761 98.4258 11.6847C99.1502 13.1847 99.5124 15.0256 99.5124 17.2074C99.5124 19.3636 99.1587 21.196 98.4514 22.7045C97.744 24.2131 96.7809 25.3636 95.5621 26.1562C94.3434 26.9489 92.9627 27.3452 91.4201 27.3452C90.2951 27.3452 89.3619 27.1577 88.6204 26.7827C87.8789 26.4077 87.2823 25.956 86.8306 25.4276C86.3874 24.8906 86.0423 24.3835 85.7951 23.9062H85.6033V34.3636H80.9755ZM85.5138 17.1818C85.5138 18.4517 85.6928 19.5639 86.0508 20.5185C86.4173 21.473 86.9414 22.2187 87.6232 22.7557C88.3136 23.2841 89.1488 23.5483 90.1289 23.5483C91.1516 23.5483 92.0082 23.2756 92.6985 22.7301C93.3888 22.1761 93.9087 21.4219 94.2582 20.4673C94.6161 19.5043 94.7951 18.4091 94.7951 17.1818C94.7951 15.9631 94.6204 14.8807 94.271 13.9347C93.9215 12.9886 93.4016 12.2472 92.7113 11.7102C92.021 11.1733 91.1602 10.9048 90.1289 10.9048C89.1403 10.9048 88.3008 11.1648 87.6104 11.6847C86.9201 12.2045 86.396 12.9332 86.038 13.8707C85.6886 14.8082 85.5138 15.9119 85.5138 17.1818ZM101.312 11.1605V7.36364H118.494V11.1605H112.14V27H107.665V11.1605H101.312ZM127.021 27.3963C125.776 27.3963 124.656 27.1747 123.658 26.7315C122.67 26.2798 121.886 25.6151 121.306 24.7372C120.735 23.8594 120.45 22.777 120.45 21.4901C120.45 20.3821 120.654 19.4659 121.063 18.7415C121.472 18.017 122.031 17.4375 122.738 17.0028C123.445 16.5682 124.242 16.2401 125.129 16.0185C126.023 15.7884 126.948 15.6222 127.903 15.5199C129.053 15.4006 129.987 15.294 130.702 15.2003C131.418 15.098 131.938 14.9446 132.262 14.7401C132.594 14.527 132.761 14.1989 132.761 13.7557V13.679C132.761 12.7159 132.475 11.9702 131.904 11.4418C131.333 10.9134 130.511 10.6491 129.437 10.6491C128.303 10.6491 127.404 10.8963 126.739 11.3906C126.083 11.8849 125.64 12.4687 125.41 13.142L121.089 12.5284C121.43 11.3352 121.992 10.3381 122.776 9.53693C123.56 8.72727 124.519 8.12216 125.653 7.72159C126.786 7.3125 128.039 7.10795 129.411 7.10795C130.357 7.10795 131.299 7.21875 132.237 7.44034C133.174 7.66193 134.031 8.02841 134.806 8.53977C135.582 9.04261 136.204 9.72869 136.673 10.598C137.15 11.4673 137.388 12.554 137.388 13.858V27H132.94V24.3026H132.786C132.505 24.848 132.109 25.3594 131.597 25.8366C131.094 26.3054 130.46 26.6847 129.692 26.9744C128.934 27.2557 128.043 27.3963 127.021 27.3963ZM128.222 23.9957C129.151 23.9957 129.957 23.8125 130.638 23.446C131.32 23.071 131.844 22.5767 132.211 21.9631C132.586 21.3494 132.773 20.6804 132.773 19.956V17.642C132.629 17.7614 132.381 17.8722 132.032 17.9744C131.691 18.0767 131.308 18.1662 130.881 18.2429C130.455 18.3196 130.033 18.3878 129.616 18.4474C129.198 18.5071 128.836 18.5582 128.529 18.6009C127.839 18.6946 127.221 18.848 126.675 19.0611C126.13 19.2741 125.7 19.5724 125.384 19.956C125.069 20.331 124.911 20.8168 124.911 21.4134C124.911 22.2656 125.222 22.9091 125.844 23.3438C126.467 23.7784 127.259 23.9957 128.222 23.9957Z" fill="#FFB7E2"/>
<path d="M9.96946 27.358C8.06889 27.358 6.38139 27.0384 4.90696 26.3991C3.44105 25.7599 2.29048 24.8864 1.45526 23.7784C0.628551 22.6619 0.21946 21.3963 0.227983 19.9815C0.21946 18.8821 0.458097 17.8722 0.943892 16.9517C1.42969 16.0312 2.08594 15.2642 2.91264 14.6506C3.74787 14.0284 4.67685 13.6321 5.69957 13.4616V13.2827C4.35298 12.9844 3.26207 12.2983 2.42685 11.2244C1.60014 10.142 1.19105 8.89346 1.19957 7.47869C1.19105 6.1321 1.56605 4.9304 2.32457 3.87358C3.0831 2.81676 4.12287 1.98579 5.44389 1.38068C6.76492 0.767045 8.27344 0.460226 9.96946 0.460226C11.6484 0.460226 13.1442 0.767045 14.4567 1.38068C15.7777 1.98579 16.8175 2.81676 17.576 3.87358C18.343 4.9304 18.7266 6.1321 18.7266 7.47869C18.7266 8.89346 18.3047 10.142 17.4609 11.2244C16.6257 12.2983 15.5476 12.9844 14.2266 13.2827V13.4616C15.2493 13.6321 16.1697 14.0284 16.9879 14.6506C17.8146 15.2642 18.4709 16.0312 18.9567 16.9517C19.451 17.8722 19.6982 18.8821 19.6982 19.9815C19.6982 21.3963 19.2805 22.6619 18.4453 23.7784C17.6101 24.8864 16.4595 25.7599 14.9936 26.3991C13.5362 27.0384 11.8615 27.358 9.96946 27.358ZM9.96946 23.7017C10.9496 23.7017 11.8018 23.5355 12.5263 23.2031C13.2507 22.8622 13.8132 22.3849 14.2138 21.7713C14.6143 21.1577 14.8189 20.4503 14.8274 19.6491C14.8189 18.8139 14.6016 18.0767 14.1754 17.4375C13.7578 16.7898 13.1825 16.2827 12.4496 15.9162C11.7251 15.5497 10.8984 15.3665 9.96946 15.3665C9.03196 15.3665 8.19673 15.5497 7.46378 15.9162C6.73082 16.2827 6.15128 16.7898 5.72514 17.4375C5.30753 18.0767 5.10298 18.8139 5.11151 19.6491C5.10298 20.4503 5.29901 21.1577 5.69957 21.7713C6.10014 22.3764 6.66264 22.8494 7.38707 23.1903C8.12003 23.5312 8.98082 23.7017 9.96946 23.7017ZM9.96946 11.7741C10.7706 11.7741 11.478 11.6122 12.0916 11.2884C12.7138 10.9645 13.2038 10.5128 13.5618 9.93324C13.9197 9.35369 14.103 8.68466 14.1115 7.92614C14.103 7.17614 13.924 6.51989 13.5746 5.95739C13.2251 5.38636 12.7393 4.94744 12.1172 4.64062C11.495 4.32528 10.7791 4.16761 9.96946 4.16761C9.14276 4.16761 8.41406 4.32528 7.78338 4.64062C7.16122 4.94744 6.67543 5.38636 6.32599 5.95739C5.98509 6.51989 5.81889 7.17614 5.82741 7.92614C5.81889 8.68466 5.98935 9.35369 6.33878 9.93324C6.69673 10.5043 7.18679 10.956 7.80895 11.2884C8.43963 11.6122 9.1598 11.7741 9.96946 11.7741ZM44.1829 21.6179L50.0124 7.36364H53.7454L45.8065 27H42.5721L34.8121 7.36364H38.5067L44.1829 21.6179ZM37.3434 7.36364V27H32.8817V7.36364H37.3434ZM51.2141 27V7.36364H55.6374V27H51.2141ZM65.9542 27.3963C64.7099 27.3963 63.5891 27.1747 62.592 26.7315C61.6033 26.2798 60.8192 25.6151 60.2397 24.7372C59.6687 23.8594 59.3832 22.777 59.3832 21.4901C59.3832 20.3821 59.5877 19.4659 59.9968 18.7415C60.4059 18.017 60.9641 17.4375 61.6715 17.0028C62.3789 16.5682 63.1758 16.2401 64.0621 16.0185C64.957 15.7884 65.8817 15.6222 66.8363 15.5199C67.9869 15.4006 68.9201 15.294 69.636 15.2003C70.3519 15.098 70.8718 14.9446 71.1957 14.7401C71.5281 14.527 71.6942 14.1989 71.6942 13.7557V13.679C71.6942 12.7159 71.4087 11.9702 70.8377 11.4418C70.2667 10.9134 69.4442 10.6491 68.3704 10.6491C67.2369 10.6491 66.3377 10.8963 65.6729 11.3906C65.0167 11.8849 64.5735 12.4687 64.3434 13.142L60.0224 12.5284C60.3633 11.3352 60.9258 10.3381 61.7099 9.53693C62.494 8.72727 63.4528 8.12216 64.5863 7.72159C65.7198 7.3125 66.9727 7.10795 68.3448 7.10795C69.2908 7.10795 70.2326 7.21875 71.1701 7.44034C72.1076 7.66193 72.9641 8.02841 73.7397 8.53977C74.5153 9.04261 75.1374 9.72869 75.6062 10.598C76.0835 11.4673 76.3221 12.554 76.3221 13.858V27H71.8732V24.3026H71.7198C71.4386 24.848 71.0423 25.3594 70.5309 25.8366C70.0281 26.3054 69.3931 26.6847 68.6261 26.9744C67.8675 27.2557 66.9769 27.3963 65.9542 27.3963ZM67.1559 23.9957C68.0849 23.9957 68.8903 23.8125 69.5721 23.446C70.2539 23.071 70.7781 22.5767 71.1445 21.9631C71.5195 21.3494 71.707 20.6804 71.707 19.956V17.642C71.5621 17.7614 71.315 17.8722 70.9656 17.9744C70.6246 18.0767 70.2411 18.1662 69.815 18.2429C69.3888 18.3196 68.967 18.3878 68.5494 18.4474C68.1317 18.5071 67.7695 18.5582 67.4627 18.6009C66.7724 18.6946 66.1545 18.848 65.609 19.0611C65.0636 19.2741 64.6332 19.5724 64.3178 19.956C64.0025 20.331 63.8448 20.8168 63.8448 21.4134C63.8448 22.2656 64.1559 22.9091 64.7781 23.3438C65.4002 23.7784 66.1928 23.9957 67.1559 23.9957ZM80.9755 34.3636V7.36364H85.5266V10.6108H85.7951C86.0337 10.1335 86.3704 9.62642 86.805 9.08949C87.2397 8.54403 87.8278 8.07954 88.5692 7.69602C89.3107 7.30398 90.2567 7.10795 91.4073 7.10795C92.9244 7.10795 94.2923 7.49574 95.511 8.27131C96.7383 9.03835 97.7099 10.1761 98.4258 11.6847C99.1502 13.1847 99.5124 15.0256 99.5124 17.2074C99.5124 19.3636 99.1587 21.196 98.4514 22.7045C97.744 24.2131 96.7809 25.3636 95.5621 26.1562C94.3434 26.9489 92.9627 27.3452 91.4201 27.3452C90.2951 27.3452 89.3619 27.1577 88.6204 26.7827C87.8789 26.4077 87.2823 25.956 86.8306 25.4276C86.3874 24.8906 86.0423 24.3835 85.7951 23.9062H85.6033V34.3636H80.9755ZM85.5138 17.1818C85.5138 18.4517 85.6928 19.5639 86.0508 20.5185C86.4173 21.473 86.9414 22.2187 87.6232 22.7557C88.3136 23.2841 89.1488 23.5483 90.1289 23.5483C91.1516 23.5483 92.0082 23.2756 92.6985 22.7301C93.3888 22.1761 93.9087 21.4219 94.2582 20.4673C94.6161 19.5043 94.7951 18.4091 94.7951 17.1818C94.7951 15.9631 94.6204 14.8807 94.271 13.9347C93.9215 12.9886 93.4016 12.2472 92.7113 11.7102C92.021 11.1733 91.1602 10.9048 90.1289 10.9048C89.1403 10.9048 88.3008 11.1648 87.6104 11.6847C86.9201 12.2045 86.396 12.9332 86.038 13.8707C85.6886 14.8082 85.5138 15.9119 85.5138 17.1818ZM101.312 11.1605V7.36364H118.494V11.1605H112.14V27H107.665V11.1605H101.312ZM127.021 27.3963C125.776 27.3963 124.656 27.1747 123.658 26.7315C122.67 26.2798 121.886 25.6151 121.306 24.7372C120.735 23.8594 120.45 22.777 120.45 21.4901C120.45 20.3821 120.654 19.4659 121.063 18.7415C121.472 18.017 122.031 17.4375 122.738 17.0028C123.445 16.5682 124.242 16.2401 125.129 16.0185C126.023 15.7884 126.948 15.6222 127.903 15.5199C129.053 15.4006 129.987 15.294 130.702 15.2003C131.418 15.098 131.938 14.9446 132.262 14.7401C132.594 14.527 132.761 14.1989 132.761 13.7557V13.679C132.761 12.7159 132.475 11.9702 131.904 11.4418C131.333 10.9134 130.511 10.6491 129.437 10.6491C128.303 10.6491 127.404 10.8963 126.739 11.3906C126.083 11.8849 125.64 12.4687 125.41 13.142L121.089 12.5284C121.43 11.3352 121.992 10.3381 122.776 9.53693C123.56 8.72727 124.519 8.12216 125.653 7.72159C126.786 7.3125 128.039 7.10795 129.411 7.10795C130.357 7.10795 131.299 7.21875 132.237 7.44034C133.174 7.66193 134.031 8.02841 134.806 8.53977C135.582 9.04261 136.204 9.72869 136.673 10.598C137.15 11.4673 137.388 12.554 137.388 13.858V27H132.94V24.3026H132.786C132.505 24.848 132.109 25.3594 131.597 25.8366C131.094 26.3054 130.46 26.6847 129.692 26.9744C128.934 27.2557 128.043 27.3963 127.021 27.3963ZM128.222 23.9957C129.151 23.9957 129.957 23.8125 130.638 23.446C131.32 23.071 131.844 22.5767 132.211 21.9631C132.586 21.3494 132.773 20.6804 132.773 19.956V17.642C132.629 17.7614 132.381 17.8722 132.032 17.9744C131.691 18.0767 131.308 18.1662 130.881 18.2429C130.455 18.3196 130.033 18.3878 129.616 18.4474C129.198 18.5071 128.836 18.5582 128.529 18.6009C127.839 18.6946 127.221 18.848 126.675 19.0611C126.13 19.2741 125.7 19.5724 125.384 19.956C125.069 20.331 124.911 20.8168 124.911 21.4134C124.911 22.2656 125.222 22.9091 125.844 23.3438C126.467 23.7784 127.259 23.9957 128.222 23.9957Z" fill="url(#paint0_linear_377_104)" fill-opacity="0.6"/>
<path d="M9.96946 27.358C8.06889 27.358 6.38139 27.0384 4.90696 26.3991C3.44105 25.7599 2.29048 24.8864 1.45526 23.7784C0.628551 22.6619 0.21946 21.3963 0.227983 19.9815C0.21946 18.8821 0.458097 17.8722 0.943892 16.9517C1.42969 16.0312 2.08594 15.2642 2.91264 14.6506C3.74787 14.0284 4.67685 13.6321 5.69957 13.4616V13.2827C4.35298 12.9844 3.26207 12.2983 2.42685 11.2244C1.60014 10.142 1.19105 8.89346 1.19957 7.47869C1.19105 6.1321 1.56605 4.9304 2.32457 3.87358C3.0831 2.81676 4.12287 1.98579 5.44389 1.38068C6.76492 0.767045 8.27344 0.460226 9.96946 0.460226C11.6484 0.460226 13.1442 0.767045 14.4567 1.38068C15.7777 1.98579 16.8175 2.81676 17.576 3.87358C18.343 4.9304 18.7266 6.1321 18.7266 7.47869C18.7266 8.89346 18.3047 10.142 17.4609 11.2244C16.6257 12.2983 15.5476 12.9844 14.2266 13.2827V13.4616C15.2493 13.6321 16.1697 14.0284 16.9879 14.6506C17.8146 15.2642 18.4709 16.0312 18.9567 16.9517C19.451 17.8722 19.6982 18.8821 19.6982 19.9815C19.6982 21.3963 19.2805 22.6619 18.4453 23.7784C17.6101 24.8864 16.4595 25.7599 14.9936 26.3991C13.5362 27.0384 11.8615 27.358 9.96946 27.358ZM9.96946 23.7017C10.9496 23.7017 11.8018 23.5355 12.5263 23.2031C13.2507 22.8622 13.8132 22.3849 14.2138 21.7713C14.6143 21.1577 14.8189 20.4503 14.8274 19.6491C14.8189 18.8139 14.6016 18.0767 14.1754 17.4375C13.7578 16.7898 13.1825 16.2827 12.4496 15.9162C11.7251 15.5497 10.8984 15.3665 9.96946 15.3665C9.03196 15.3665 8.19673 15.5497 7.46378 15.9162C6.73082 16.2827 6.15128 16.7898 5.72514 17.4375C5.30753 18.0767 5.10298 18.8139 5.11151 19.6491C5.10298 20.4503 5.29901 21.1577 5.69957 21.7713C6.10014 22.3764 6.66264 22.8494 7.38707 23.1903C8.12003 23.5312 8.98082 23.7017 9.96946 23.7017ZM9.96946 11.7741C10.7706 11.7741 11.478 11.6122 12.0916 11.2884C12.7138 10.9645 13.2038 10.5128 13.5618 9.93324C13.9197 9.35369 14.103 8.68466 14.1115 7.92614C14.103 7.17614 13.924 6.51989 13.5746 5.95739C13.2251 5.38636 12.7393 4.94744 12.1172 4.64062C11.495 4.32528 10.7791 4.16761 9.96946 4.16761C9.14276 4.16761 8.41406 4.32528 7.78338 4.64062C7.16122 4.94744 6.67543 5.38636 6.32599 5.95739C5.98509 6.51989 5.81889 7.17614 5.82741 7.92614C5.81889 8.68466 5.98935 9.35369 6.33878 9.93324C6.69673 10.5043 7.18679 10.956 7.80895 11.2884C8.43963 11.6122 9.1598 11.7741 9.96946 11.7741ZM44.1829 21.6179L50.0124 7.36364H53.7454L45.8065 27H42.5721L34.8121 7.36364H38.5067L44.1829 21.6179ZM37.3434 7.36364V27H32.8817V7.36364H37.3434ZM51.2141 27V7.36364H55.6374V27H51.2141ZM65.9542 27.3963C64.7099 27.3963 63.5891 27.1747 62.592 26.7315C61.6033 26.2798 60.8192 25.6151 60.2397 24.7372C59.6687 23.8594 59.3832 22.777 59.3832 21.4901C59.3832 20.3821 59.5877 19.4659 59.9968 18.7415C60.4059 18.017 60.9641 17.4375 61.6715 17.0028C62.3789 16.5682 63.1758 16.2401 64.0621 16.0185C64.957 15.7884 65.8817 15.6222 66.8363 15.5199C67.9869 15.4006 68.9201 15.294 69.636 15.2003C70.3519 15.098 70.8718 14.9446 71.1957 14.7401C71.5281 14.527 71.6942 14.1989 71.6942 13.7557V13.679C71.6942 12.7159 71.4087 11.9702 70.8377 11.4418C70.2667 10.9134 69.4442 10.6491 68.3704 10.6491C67.2369 10.6491 66.3377 10.8963 65.6729 11.3906C65.0167 11.8849 64.5735 12.4687 64.3434 13.142L60.0224 12.5284C60.3633 11.3352 60.9258 10.3381 61.7099 9.53693C62.494 8.72727 63.4528 8.12216 64.5863 7.72159C65.7198 7.3125 66.9727 7.10795 68.3448 7.10795C69.2908 7.10795 70.2326 7.21875 71.1701 7.44034C72.1076 7.66193 72.9641 8.02841 73.7397 8.53977C74.5153 9.04261 75.1374 9.72869 75.6062 10.598C76.0835 11.4673 76.3221 12.554 76.3221 13.858V27H71.8732V24.3026H71.7198C71.4386 24.848 71.0423 25.3594 70.5309 25.8366C70.0281 26.3054 69.3931 26.6847 68.6261 26.9744C67.8675 27.2557 66.9769 27.3963 65.9542 27.3963ZM67.1559 23.9957C68.0849 23.9957 68.8903 23.8125 69.5721 23.446C70.2539 23.071 70.7781 22.5767 71.1445 21.9631C71.5195 21.3494 71.707 20.6804 71.707 19.956V17.642C71.5621 17.7614 71.315 17.8722 70.9656 17.9744C70.6246 18.0767 70.2411 18.1662 69.815 18.2429C69.3888 18.3196 68.967 18.3878 68.5494 18.4474C68.1317 18.5071 67.7695 18.5582 67.4627 18.6009C66.7724 18.6946 66.1545 18.848 65.609 19.0611C65.0636 19.2741 64.6332 19.5724 64.3178 19.956C64.0025 20.331 63.8448 20.8168 63.8448 21.4134C63.8448 22.2656 64.1559 22.9091 64.7781 23.3438C65.4002 23.7784 66.1928 23.9957 67.1559 23.9957ZM80.9755 34.3636V7.36364H85.5266V10.6108H85.7951C86.0337 10.1335 86.3704 9.62642 86.805 9.08949C87.2397 8.54403 87.8278 8.07954 88.5692 7.69602C89.3107 7.30398 90.2567 7.10795 91.4073 7.10795C92.9244 7.10795 94.2923 7.49574 95.511 8.27131C96.7383 9.03835 97.7099 10.1761 98.4258 11.6847C99.1502 13.1847 99.5124 15.0256 99.5124 17.2074C99.5124 19.3636 99.1587 21.196 98.4514 22.7045C97.744 24.2131 96.7809 25.3636 95.5621 26.1562C94.3434 26.9489 92.9627 27.3452 91.4201 27.3452C90.2951 27.3452 89.3619 27.1577 88.6204 26.7827C87.8789 26.4077 87.2823 25.956 86.8306 25.4276C86.3874 24.8906 86.0423 24.3835 85.7951 23.9062H85.6033V34.3636H80.9755ZM85.5138 17.1818C85.5138 18.4517 85.6928 19.5639 86.0508 20.5185C86.4173 21.473 86.9414 22.2187 87.6232 22.7557C88.3136 23.2841 89.1488 23.5483 90.1289 23.5483C91.1516 23.5483 92.0082 23.2756 92.6985 22.7301C93.3888 22.1761 93.9087 21.4219 94.2582 20.4673C94.6161 19.5043 94.7951 18.4091 94.7951 17.1818C94.7951 15.9631 94.6204 14.8807 94.271 13.9347C93.9215 12.9886 93.4016 12.2472 92.7113 11.7102C92.021 11.1733 91.1602 10.9048 90.1289 10.9048C89.1403 10.9048 88.3008 11.1648 87.6104 11.6847C86.9201 12.2045 86.396 12.9332 86.038 13.8707C85.6886 14.8082 85.5138 15.9119 85.5138 17.1818ZM101.312 11.1605V7.36364H118.494V11.1605H112.14V27H107.665V11.1605H101.312ZM127.021 27.3963C125.776 27.3963 124.656 27.1747 123.658 26.7315C122.67 26.2798 121.886 25.6151 121.306 24.7372C120.735 23.8594 120.45 22.777 120.45 21.4901C120.45 20.3821 120.654 19.4659 121.063 18.7415C121.472 18.017 122.031 17.4375 122.738 17.0028C123.445 16.5682 124.242 16.2401 125.129 16.0185C126.023 15.7884 126.948 15.6222 127.903 15.5199C129.053 15.4006 129.987 15.294 130.702 15.2003C131.418 15.098 131.938 14.9446 132.262 14.7401C132.594 14.527 132.761 14.1989 132.761 13.7557V13.679C132.761 12.7159 132.475 11.9702 131.904 11.4418C131.333 10.9134 130.511 10.6491 129.437 10.6491C128.303 10.6491 127.404 10.8963 126.739 11.3906C126.083 11.8849 125.64 12.4687 125.41 13.142L121.089 12.5284C121.43 11.3352 121.992 10.3381 122.776 9.53693C123.56 8.72727 124.519 8.12216 125.653 7.72159C126.786 7.3125 128.039 7.10795 129.411 7.10795C130.357 7.10795 131.299 7.21875 132.237 7.44034C133.174 7.66193 134.031 8.02841 134.806 8.53977C135.582 9.04261 136.204 9.72869 136.673 10.598C137.15 11.4673 137.388 12.554 137.388 13.858V27H132.94V24.3026H132.786C132.505 24.848 132.109 25.3594 131.597 25.8366C131.094 26.3054 130.46 26.6847 129.692 26.9744C128.934 27.2557 128.043 27.3963 127.021 27.3963ZM128.222 23.9957C129.151 23.9957 129.957 23.8125 130.638 23.446C131.32 23.071 131.844 22.5767 132.211 21.9631C132.586 21.3494 132.773 20.6804 132.773 19.956V17.642C132.629 17.7614 132.381 17.8722 132.032 17.9744C131.691 18.0767 131.308 18.1662 130.881 18.2429C130.455 18.3196 130.033 18.3878 129.616 18.4474C129.198 18.5071 128.836 18.5582 128.529 18.6009C127.839 18.6946 127.221 18.848 126.675 19.0611C126.13 19.2741 125.7 19.5724 125.384 19.956C125.069 20.331 124.911 20.8168 124.911 21.4134C124.911 22.2656 125.222 22.9091 125.844 23.3438C126.467 23.7784 127.259 23.9957 128.222 23.9957Z" fill="url(#paint1_linear_377_104)" fill-opacity="0.6"/>
<defs>
<linearGradient id="paint0_linear_377_104" x1="14.217" y1="14" x2="100.985" y2="39.4752" gradientUnits="userSpaceOnUse">
<stop stop-color="#8A61FF"/>
<stop offset="1" stop-color="#F528ED" stop-opacity="0"/>
</linearGradient>
<linearGradient id="paint1_linear_377_104" x1="130.964" y1="30.6667" x2="50.6843" y2="30.9817" gradientUnits="userSpaceOnUse">
<stop stop-color="#F528ED"/>
<stop offset="1" stop-color="#F528ED" stop-opacity="0"/>
</linearGradient>
</defs>
</svg>
