<svg width="127" height="32" viewBox="0 0 127 32" fill="none" xmlns="http://www.w3.org/2000/svg">
<path d="M6.21807 1.6L9.62007 24.112H9.91407L13.3161 1.6H18.9861V31H15.0801L15.5421 8.572H15.2481L11.3421 31H8.23407L4.28607 8.572H3.99207L4.45407 31H0.54807V1.6H6.21807ZM30.458 15.922C30.458 14.914 30.22 14.102 29.744 13.486C29.268 12.87 28.652 12.562 27.896 12.562C27.112 12.562 26.482 12.87 26.006 13.486C25.558 14.102 25.334 14.914 25.334 15.922V18.19H21.344V16.132C21.344 14.004 21.918 12.31 23.066 11.05C24.242 9.79 25.838 9.16 27.854 9.16C29.87 9.16 31.466 9.79 32.642 11.05C33.846 12.31 34.448 14.004 34.448 16.132V30.958H30.458V28.438H30.332C29.184 30.426 27.63 31.42 25.67 31.42C24.298 31.42 23.192 30.958 22.352 30.034C21.54 29.082 21.134 27.85 21.134 26.338V24.406C21.134 22.81 21.666 21.564 22.73 20.668C23.794 19.772 25.306 19.324 27.266 19.324H30.458V15.922ZM30.458 21.424H28.82C26.356 21.424 25.124 22.334 25.124 24.154V25.54C25.124 26.38 25.334 27.038 25.754 27.514C26.174 27.99 26.762 28.228 27.518 28.228C28.19 28.228 28.778 28.032 29.282 27.64C29.814 27.248 30.206 26.688 30.458 25.96V21.424ZM40.4658 13.402H40.5918C41.0398 12.114 41.6278 11.092 42.3558 10.336C43.1118 9.552 44.1618 9.16 45.5058 9.16C45.6458 9.16 45.7578 9.16 45.8418 9.16C45.9538 9.16 46.0798 9.174 46.2198 9.202V13.15C46.0518 13.094 45.8838 13.066 45.7158 13.066C45.5758 13.066 45.4218 13.066 45.2538 13.066C43.5738 13.066 42.3558 13.626 41.5998 14.746C40.8438 15.866 40.4658 17.35 40.4658 19.198V31H36.4758V9.58H40.4658V13.402ZM51.0449 24.658C51.0449 25.666 51.2829 26.478 51.7589 27.094C52.2629 27.682 52.9209 27.976 53.7329 27.976C54.5449 27.976 55.1889 27.682 55.6649 27.094C56.1409 26.478 56.3789 25.666 56.3789 24.658V21.718H60.3689V24.448C60.3689 26.576 59.7529 28.27 58.5209 29.53C57.3169 30.79 55.7069 31.42 53.6909 31.42C51.6469 31.42 50.0229 30.79 48.8189 29.53C47.6429 28.27 47.0549 26.576 47.0549 24.448V16.132C47.0549 14.004 47.6429 12.31 48.8189 11.05C50.0229 9.79 51.6329 9.16 53.6489 9.16C55.6929 9.16 57.3169 9.804 58.5209 11.092C59.7529 12.352 60.3689 14.032 60.3689 16.132V18.862H56.3789V15.922C56.3789 14.914 56.1269 14.116 55.6229 13.528C55.1469 12.912 54.5169 12.604 53.7329 12.604C52.9209 12.604 52.2629 12.912 51.7589 13.528C51.2829 14.116 51.0449 14.914 51.0449 15.922V24.658ZM62.5217 0.759999H66.5117V12.562H66.7637C67.2397 11.47 67.8557 10.63 68.6117 10.042C69.3957 9.454 70.2637 9.16 71.2157 9.16C72.5037 9.16 73.5817 9.692 74.4497 10.756C75.3457 11.792 75.7937 13.304 75.7937 15.292V31H71.8037V15.838C71.8037 14.914 71.5797 14.158 71.1317 13.57C70.6837 12.982 70.1097 12.688 69.4097 12.688C68.7657 12.688 68.1777 12.926 67.6457 13.402C67.1417 13.85 66.7637 14.48 66.5117 15.292V31H62.5217V0.759999ZM85.4914 8.53C85.4914 5.982 86.1074 4.12 87.3394 2.944C88.5994 1.768 90.4194 1.18 92.7994 1.18C95.1794 1.18 97.0134 1.782 98.3014 2.986C99.6174 4.162 100.275 6.01 100.275 8.53V9.244C100.275 10.084 100.163 10.868 99.9394 11.596C99.7154 12.296 99.4214 12.912 99.0574 13.444C98.6934 13.976 98.2594 14.41 97.7554 14.746C97.2794 15.082 96.7614 15.292 96.2014 15.376V15.67C97.3214 15.866 98.3014 16.51 99.1414 17.602C99.9814 18.694 100.401 20.36 100.401 22.6V23.86C100.401 26.492 99.7294 28.41 98.3854 29.614C97.0414 30.818 95.1794 31.42 92.7994 31.42C90.4194 31.42 88.5854 30.818 87.2974 29.614C86.0374 28.41 85.4074 26.492 85.4074 23.86V22.6C85.4074 20.416 85.7854 18.764 86.5414 17.644C87.2974 16.496 88.2354 15.824 89.3554 15.628V15.334C88.2634 15.138 87.3394 14.494 86.5834 13.402C85.8554 12.31 85.4914 10.924 85.4914 9.244V8.53ZM89.6914 10.252C89.6914 11.484 90.0134 12.366 90.6574 12.898C91.3294 13.402 92.0714 13.654 92.8834 13.654C93.6954 13.654 94.4234 13.402 95.0674 12.898C95.7394 12.366 96.0754 11.484 96.0754 10.252V8.446C96.0754 7.102 95.7534 6.164 95.1094 5.632C94.4654 5.1 93.7234 4.834 92.8834 4.834C92.0434 4.834 91.3014 5.1 90.6574 5.632C90.0134 6.164 89.6914 7.102 89.6914 8.446V10.252ZM89.6074 24.154C89.6074 25.498 89.9434 26.436 90.6154 26.968C91.2874 27.5 92.0434 27.766 92.8834 27.766C93.7234 27.766 94.4794 27.5 95.1514 26.968C95.8514 26.436 96.2014 25.498 96.2014 24.154V20.962C96.2014 19.842 95.9214 18.96 95.3614 18.316C94.8014 17.672 93.9754 17.35 92.8834 17.35C91.7914 17.35 90.9654 17.672 90.4054 18.316C89.8734 18.96 89.6074 19.842 89.6074 20.962V24.154ZM101.67 9.58H103.77V5.002L107.76 4.708V9.58H112.002V13.024H107.76V25.036C107.76 26.1 108.012 26.842 108.516 27.262C109.02 27.682 109.608 27.892 110.28 27.892C110.56 27.892 110.84 27.864 111.12 27.808C111.4 27.752 111.694 27.682 112.002 27.598L112.128 31.042C111.008 31.294 109.986 31.42 109.062 31.42C108.306 31.42 107.592 31.308 106.92 31.084C106.276 30.888 105.716 30.552 105.24 30.076C104.792 29.572 104.428 28.928 104.148 28.144C103.896 27.36 103.77 26.394 103.77 25.246V13.024H101.67V9.58ZM113.381 0.759999H117.371V12.562H117.623C118.099 11.47 118.715 10.63 119.471 10.042C120.255 9.454 121.123 9.16 122.075 9.16C123.363 9.16 124.441 9.692 125.309 10.756C126.205 11.792 126.653 13.304 126.653 15.292V31H122.663V15.838C122.663 14.914 122.439 14.158 121.991 13.57C121.543 12.982 120.969 12.688 120.269 12.688C119.625 12.688 119.037 12.926 118.505 13.402C118.001 13.85 117.623 14.48 117.371 15.292V31H113.381V0.759999Z" fill="#FFB7E2"/>
<path d="M6.21807 1.6L9.62007 24.112H9.91407L13.3161 1.6H18.9861V31H15.0801L15.5421 8.572H15.2481L11.3421 31H8.23407L4.28607 8.572H3.99207L4.45407 31H0.54807V1.6H6.21807ZM30.458 15.922C30.458 14.914 30.22 14.102 29.744 13.486C29.268 12.87 28.652 12.562 27.896 12.562C27.112 12.562 26.482 12.87 26.006 13.486C25.558 14.102 25.334 14.914 25.334 15.922V18.19H21.344V16.132C21.344 14.004 21.918 12.31 23.066 11.05C24.242 9.79 25.838 9.16 27.854 9.16C29.87 9.16 31.466 9.79 32.642 11.05C33.846 12.31 34.448 14.004 34.448 16.132V30.958H30.458V28.438H30.332C29.184 30.426 27.63 31.42 25.67 31.42C24.298 31.42 23.192 30.958 22.352 30.034C21.54 29.082 21.134 27.85 21.134 26.338V24.406C21.134 22.81 21.666 21.564 22.73 20.668C23.794 19.772 25.306 19.324 27.266 19.324H30.458V15.922ZM30.458 21.424H28.82C26.356 21.424 25.124 22.334 25.124 24.154V25.54C25.124 26.38 25.334 27.038 25.754 27.514C26.174 27.99 26.762 28.228 27.518 28.228C28.19 28.228 28.778 28.032 29.282 27.64C29.814 27.248 30.206 26.688 30.458 25.96V21.424ZM40.4658 13.402H40.5918C41.0398 12.114 41.6278 11.092 42.3558 10.336C43.1118 9.552 44.1618 9.16 45.5058 9.16C45.6458 9.16 45.7578 9.16 45.8418 9.16C45.9538 9.16 46.0798 9.174 46.2198 9.202V13.15C46.0518 13.094 45.8838 13.066 45.7158 13.066C45.5758 13.066 45.4218 13.066 45.2538 13.066C43.5738 13.066 42.3558 13.626 41.5998 14.746C40.8438 15.866 40.4658 17.35 40.4658 19.198V31H36.4758V9.58H40.4658V13.402ZM51.0449 24.658C51.0449 25.666 51.2829 26.478 51.7589 27.094C52.2629 27.682 52.9209 27.976 53.7329 27.976C54.5449 27.976 55.1889 27.682 55.6649 27.094C56.1409 26.478 56.3789 25.666 56.3789 24.658V21.718H60.3689V24.448C60.3689 26.576 59.7529 28.27 58.5209 29.53C57.3169 30.79 55.7069 31.42 53.6909 31.42C51.6469 31.42 50.0229 30.79 48.8189 29.53C47.6429 28.27 47.0549 26.576 47.0549 24.448V16.132C47.0549 14.004 47.6429 12.31 48.8189 11.05C50.0229 9.79 51.6329 9.16 53.6489 9.16C55.6929 9.16 57.3169 9.804 58.5209 11.092C59.7529 12.352 60.3689 14.032 60.3689 16.132V18.862H56.3789V15.922C56.3789 14.914 56.1269 14.116 55.6229 13.528C55.1469 12.912 54.5169 12.604 53.7329 12.604C52.9209 12.604 52.2629 12.912 51.7589 13.528C51.2829 14.116 51.0449 14.914 51.0449 15.922V24.658ZM62.5217 0.759999H66.5117V12.562H66.7637C67.2397 11.47 67.8557 10.63 68.6117 10.042C69.3957 9.454 70.2637 9.16 71.2157 9.16C72.5037 9.16 73.5817 9.692 74.4497 10.756C75.3457 11.792 75.7937 13.304 75.7937 15.292V31H71.8037V15.838C71.8037 14.914 71.5797 14.158 71.1317 13.57C70.6837 12.982 70.1097 12.688 69.4097 12.688C68.7657 12.688 68.1777 12.926 67.6457 13.402C67.1417 13.85 66.7637 14.48 66.5117 15.292V31H62.5217V0.759999ZM85.4914 8.53C85.4914 5.982 86.1074 4.12 87.3394 2.944C88.5994 1.768 90.4194 1.18 92.7994 1.18C95.1794 1.18 97.0134 1.782 98.3014 2.986C99.6174 4.162 100.275 6.01 100.275 8.53V9.244C100.275 10.084 100.163 10.868 99.9394 11.596C99.7154 12.296 99.4214 12.912 99.0574 13.444C98.6934 13.976 98.2594 14.41 97.7554 14.746C97.2794 15.082 96.7614 15.292 96.2014 15.376V15.67C97.3214 15.866 98.3014 16.51 99.1414 17.602C99.9814 18.694 100.401 20.36 100.401 22.6V23.86C100.401 26.492 99.7294 28.41 98.3854 29.614C97.0414 30.818 95.1794 31.42 92.7994 31.42C90.4194 31.42 88.5854 30.818 87.2974 29.614C86.0374 28.41 85.4074 26.492 85.4074 23.86V22.6C85.4074 20.416 85.7854 18.764 86.5414 17.644C87.2974 16.496 88.2354 15.824 89.3554 15.628V15.334C88.2634 15.138 87.3394 14.494 86.5834 13.402C85.8554 12.31 85.4914 10.924 85.4914 9.244V8.53ZM89.6914 10.252C89.6914 11.484 90.0134 12.366 90.6574 12.898C91.3294 13.402 92.0714 13.654 92.8834 13.654C93.6954 13.654 94.4234 13.402 95.0674 12.898C95.7394 12.366 96.0754 11.484 96.0754 10.252V8.446C96.0754 7.102 95.7534 6.164 95.1094 5.632C94.4654 5.1 93.7234 4.834 92.8834 4.834C92.0434 4.834 91.3014 5.1 90.6574 5.632C90.0134 6.164 89.6914 7.102 89.6914 8.446V10.252ZM89.6074 24.154C89.6074 25.498 89.9434 26.436 90.6154 26.968C91.2874 27.5 92.0434 27.766 92.8834 27.766C93.7234 27.766 94.4794 27.5 95.1514 26.968C95.8514 26.436 96.2014 25.498 96.2014 24.154V20.962C96.2014 19.842 95.9214 18.96 95.3614 18.316C94.8014 17.672 93.9754 17.35 92.8834 17.35C91.7914 17.35 90.9654 17.672 90.4054 18.316C89.8734 18.96 89.6074 19.842 89.6074 20.962V24.154ZM101.67 9.58H103.77V5.002L107.76 4.708V9.58H112.002V13.024H107.76V25.036C107.76 26.1 108.012 26.842 108.516 27.262C109.02 27.682 109.608 27.892 110.28 27.892C110.56 27.892 110.84 27.864 111.12 27.808C111.4 27.752 111.694 27.682 112.002 27.598L112.128 31.042C111.008 31.294 109.986 31.42 109.062 31.42C108.306 31.42 107.592 31.308 106.92 31.084C106.276 30.888 105.716 30.552 105.24 30.076C104.792 29.572 104.428 28.928 104.148 28.144C103.896 27.36 103.77 26.394 103.77 25.246V13.024H101.67V9.58ZM113.381 0.759999H117.371V12.562H117.623C118.099 11.47 118.715 10.63 119.471 10.042C120.255 9.454 121.123 9.16 122.075 9.16C123.363 9.16 124.441 9.692 125.309 10.756C126.205 11.792 126.653 13.304 126.653 15.292V31H122.663V15.838C122.663 14.914 122.439 14.158 121.991 13.57C121.543 12.982 120.969 12.688 120.269 12.688C119.625 12.688 119.037 12.926 118.505 13.402C118.001 13.85 117.623 14.48 117.371 15.292V31H113.381V0.759999Z" fill="url(#paint0_linear_303_70)" fill-opacity="0.6"/>
<path d="M6.21807 1.6L9.62007 24.112H9.91407L13.3161 1.6H18.9861V31H15.0801L15.5421 8.572H15.2481L11.3421 31H8.23407L4.28607 8.572H3.99207L4.45407 31H0.54807V1.6H6.21807ZM30.458 15.922C30.458 14.914 30.22 14.102 29.744 13.486C29.268 12.87 28.652 12.562 27.896 12.562C27.112 12.562 26.482 12.87 26.006 13.486C25.558 14.102 25.334 14.914 25.334 15.922V18.19H21.344V16.132C21.344 14.004 21.918 12.31 23.066 11.05C24.242 9.79 25.838 9.16 27.854 9.16C29.87 9.16 31.466 9.79 32.642 11.05C33.846 12.31 34.448 14.004 34.448 16.132V30.958H30.458V28.438H30.332C29.184 30.426 27.63 31.42 25.67 31.42C24.298 31.42 23.192 30.958 22.352 30.034C21.54 29.082 21.134 27.85 21.134 26.338V24.406C21.134 22.81 21.666 21.564 22.73 20.668C23.794 19.772 25.306 19.324 27.266 19.324H30.458V15.922ZM30.458 21.424H28.82C26.356 21.424 25.124 22.334 25.124 24.154V25.54C25.124 26.38 25.334 27.038 25.754 27.514C26.174 27.99 26.762 28.228 27.518 28.228C28.19 28.228 28.778 28.032 29.282 27.64C29.814 27.248 30.206 26.688 30.458 25.96V21.424ZM40.4658 13.402H40.5918C41.0398 12.114 41.6278 11.092 42.3558 10.336C43.1118 9.552 44.1618 9.16 45.5058 9.16C45.6458 9.16 45.7578 9.16 45.8418 9.16C45.9538 9.16 46.0798 9.174 46.2198 9.202V13.15C46.0518 13.094 45.8838 13.066 45.7158 13.066C45.5758 13.066 45.4218 13.066 45.2538 13.066C43.5738 13.066 42.3558 13.626 41.5998 14.746C40.8438 15.866 40.4658 17.35 40.4658 19.198V31H36.4758V9.58H40.4658V13.402ZM51.0449 24.658C51.0449 25.666 51.2829 26.478 51.7589 27.094C52.2629 27.682 52.9209 27.976 53.7329 27.976C54.5449 27.976 55.1889 27.682 55.6649 27.094C56.1409 26.478 56.3789 25.666 56.3789 24.658V21.718H60.3689V24.448C60.3689 26.576 59.7529 28.27 58.5209 29.53C57.3169 30.79 55.7069 31.42 53.6909 31.42C51.6469 31.42 50.0229 30.79 48.8189 29.53C47.6429 28.27 47.0549 26.576 47.0549 24.448V16.132C47.0549 14.004 47.6429 12.31 48.8189 11.05C50.0229 9.79 51.6329 9.16 53.6489 9.16C55.6929 9.16 57.3169 9.804 58.5209 11.092C59.7529 12.352 60.3689 14.032 60.3689 16.132V18.862H56.3789V15.922C56.3789 14.914 56.1269 14.116 55.6229 13.528C55.1469 12.912 54.5169 12.604 53.7329 12.604C52.9209 12.604 52.2629 12.912 51.7589 13.528C51.2829 14.116 51.0449 14.914 51.0449 15.922V24.658ZM62.5217 0.759999H66.5117V12.562H66.7637C67.2397 11.47 67.8557 10.63 68.6117 10.042C69.3957 9.454 70.2637 9.16 71.2157 9.16C72.5037 9.16 73.5817 9.692 74.4497 10.756C75.3457 11.792 75.7937 13.304 75.7937 15.292V31H71.8037V15.838C71.8037 14.914 71.5797 14.158 71.1317 13.57C70.6837 12.982 70.1097 12.688 69.4097 12.688C68.7657 12.688 68.1777 12.926 67.6457 13.402C67.1417 13.85 66.7637 14.48 66.5117 15.292V31H62.5217V0.759999ZM85.4914 8.53C85.4914 5.982 86.1074 4.12 87.3394 2.944C88.5994 1.768 90.4194 1.18 92.7994 1.18C95.1794 1.18 97.0134 1.782 98.3014 2.986C99.6174 4.162 100.275 6.01 100.275 8.53V9.244C100.275 10.084 100.163 10.868 99.9394 11.596C99.7154 12.296 99.4214 12.912 99.0574 13.444C98.6934 13.976 98.2594 14.41 97.7554 14.746C97.2794 15.082 96.7614 15.292 96.2014 15.376V15.67C97.3214 15.866 98.3014 16.51 99.1414 17.602C99.9814 18.694 100.401 20.36 100.401 22.6V23.86C100.401 26.492 99.7294 28.41 98.3854 29.614C97.0414 30.818 95.1794 31.42 92.7994 31.42C90.4194 31.42 88.5854 30.818 87.2974 29.614C86.0374 28.41 85.4074 26.492 85.4074 23.86V22.6C85.4074 20.416 85.7854 18.764 86.5414 17.644C87.2974 16.496 88.2354 15.824 89.3554 15.628V15.334C88.2634 15.138 87.3394 14.494 86.5834 13.402C85.8554 12.31 85.4914 10.924 85.4914 9.244V8.53ZM89.6914 10.252C89.6914 11.484 90.0134 12.366 90.6574 12.898C91.3294 13.402 92.0714 13.654 92.8834 13.654C93.6954 13.654 94.4234 13.402 95.0674 12.898C95.7394 12.366 96.0754 11.484 96.0754 10.252V8.446C96.0754 7.102 95.7534 6.164 95.1094 5.632C94.4654 5.1 93.7234 4.834 92.8834 4.834C92.0434 4.834 91.3014 5.1 90.6574 5.632C90.0134 6.164 89.6914 7.102 89.6914 8.446V10.252ZM89.6074 24.154C89.6074 25.498 89.9434 26.436 90.6154 26.968C91.2874 27.5 92.0434 27.766 92.8834 27.766C93.7234 27.766 94.4794 27.5 95.1514 26.968C95.8514 26.436 96.2014 25.498 96.2014 24.154V20.962C96.2014 19.842 95.9214 18.96 95.3614 18.316C94.8014 17.672 93.9754 17.35 92.8834 17.35C91.7914 17.35 90.9654 17.672 90.4054 18.316C89.8734 18.96 89.6074 19.842 89.6074 20.962V24.154ZM101.67 9.58H103.77V5.002L107.76 4.708V9.58H112.002V13.024H107.76V25.036C107.76 26.1 108.012 26.842 108.516 27.262C109.02 27.682 109.608 27.892 110.28 27.892C110.56 27.892 110.84 27.864 111.12 27.808C111.4 27.752 111.694 27.682 112.002 27.598L112.128 31.042C111.008 31.294 109.986 31.42 109.062 31.42C108.306 31.42 107.592 31.308 106.92 31.084C106.276 30.888 105.716 30.552 105.24 30.076C104.792 29.572 104.428 28.928 104.148 28.144C103.896 27.36 103.77 26.394 103.77 25.246V13.024H101.67V9.58ZM113.381 0.759999H117.371V12.562H117.623C118.099 11.47 118.715 10.63 119.471 10.042C120.255 9.454 121.123 9.16 122.075 9.16C123.363 9.16 124.441 9.692 125.309 10.756C126.205 11.792 126.653 13.304 126.653 15.292V31H122.663V15.838C122.663 14.914 122.439 14.158 121.991 13.57C121.543 12.982 120.969 12.688 120.269 12.688C119.625 12.688 119.037 12.926 118.505 13.402C118.001 13.85 117.623 14.48 117.371 15.292V31H113.381V0.759999Z" fill="url(#paint1_linear_303_70)" fill-opacity="0.6"/>
<defs>
<linearGradient id="paint0_linear_303_70" x1="13.7324" y1="20" x2="94.9813" y2="38.8442" gradientUnits="userSpaceOnUse">
<stop stop-color="#8A61FF"/>
<stop offset="1" stop-color="#F528ED" stop-opacity="0"/>
</linearGradient>
<linearGradient id="paint1_linear_303_70" x1="119.791" y1="39.1667" x2="46.8606" y2="39.3928" gradientUnits="userSpaceOnUse">
<stop stop-color="#F528ED"/>
<stop offset="1" stop-color="#F528ED" stop-opacity="0"/>
</linearGradient>
</defs>
</svg>
