<svg width="107" height="27" viewBox="0 0 107 27" fill="none" xmlns="http://www.w3.org/2000/svg">
<path d="M11.7823 0.818181V27H6.2468V6.07244H6.09339L0.0976562 9.83097V4.92188L6.57919 0.818181H11.7823ZM26.4904 0.818181H33.3171L40.5273 18.4091H40.8342L48.0444 0.818181H54.8711V27H49.5018V9.95881H49.2844L42.5089 26.8722H38.8526L32.0771 9.89489H31.8597V27H26.4904V0.818181ZM63.9446 27H58.0128L67.0511 0.818181H74.1847L83.2102 27H77.2784L70.7202 6.80114H70.5156L63.9446 27ZM63.5739 16.7088H77.5852V21.0298H63.5739V16.7088ZM106.458 27H100.935V5.34375H97.2024C96.1371 5.34375 95.2507 5.50142 94.5433 5.81676C93.8445 6.12358 93.3203 6.57528 92.9709 7.17188C92.6214 7.76847 92.4467 8.50142 92.4467 9.37074C92.4467 10.2315 92.6214 10.9517 92.9709 11.5312C93.3203 12.1108 93.8445 12.5455 94.5433 12.8352C95.2422 13.125 96.12 13.2699 97.1768 13.2699H103.185V17.7188H96.282C94.2791 17.7188 92.5661 17.3864 91.1428 16.7216C89.7195 16.0568 88.6328 15.1023 87.8828 13.858C87.1328 12.6051 86.7578 11.1094 86.7578 9.37074C86.7578 7.64062 87.1243 6.13636 87.8572 4.85795C88.5987 3.57102 89.6683 2.57812 91.0661 1.87926C92.4723 1.17187 94.1641 0.818181 96.1413 0.818181H106.458V27ZM92.3317 15.0852H98.3018L91.9354 27H85.8246L92.3317 15.0852Z" fill="#7AD940"/>
<path d="M11.7823 0.818181V27H6.2468V6.07244H6.09339L0.0976562 9.83097V4.92188L6.57919 0.818181H11.7823ZM26.4904 0.818181H33.3171L40.5273 18.4091H40.8342L48.0444 0.818181H54.8711V27H49.5018V9.95881H49.2844L42.5089 26.8722H38.8526L32.0771 9.89489H31.8597V27H26.4904V0.818181ZM63.9446 27H58.0128L67.0511 0.818181H74.1847L83.2102 27H77.2784L70.7202 6.80114H70.5156L63.9446 27ZM63.5739 16.7088H77.5852V21.0298H63.5739V16.7088ZM106.458 27H100.935V5.34375H97.2024C96.1371 5.34375 95.2507 5.50142 94.5433 5.81676C93.8445 6.12358 93.3203 6.57528 92.9709 7.17188C92.6214 7.76847 92.4467 8.50142 92.4467 9.37074C92.4467 10.2315 92.6214 10.9517 92.9709 11.5312C93.3203 12.1108 93.8445 12.5455 94.5433 12.8352C95.2422 13.125 96.12 13.2699 97.1768 13.2699H103.185V17.7188H96.282C94.2791 17.7188 92.5661 17.3864 91.1428 16.7216C89.7195 16.0568 88.6328 15.1023 87.8828 13.858C87.1328 12.6051 86.7578 11.1094 86.7578 9.37074C86.7578 7.64062 87.1243 6.13636 87.8572 4.85795C88.5987 3.57102 89.6683 2.57812 91.0661 1.87926C92.4723 1.17187 94.1641 0.818181 96.1413 0.818181H106.458V27ZM92.3317 15.0852H98.3018L91.9354 27H85.8246L92.3317 15.0852Z" fill="url(#paint0_linear_388_69)" fill-opacity="0.6"/>
<path d="M11.7823 0.818181V27H6.2468V6.07244H6.09339L0.0976562 9.83097V4.92188L6.57919 0.818181H11.7823ZM26.4904 0.818181H33.3171L40.5273 18.4091H40.8342L48.0444 0.818181H54.8711V27H49.5018V9.95881H49.2844L42.5089 26.8722H38.8526L32.0771 9.89489H31.8597V27H26.4904V0.818181ZM63.9446 27H58.0128L67.0511 0.818181H74.1847L83.2102 27H77.2784L70.7202 6.80114H70.5156L63.9446 27ZM63.5739 16.7088H77.5852V21.0298H63.5739V16.7088ZM106.458 27H100.935V5.34375H97.2024C96.1371 5.34375 95.2507 5.50142 94.5433 5.81676C93.8445 6.12358 93.3203 6.57528 92.9709 7.17188C92.6214 7.76847 92.4467 8.50142 92.4467 9.37074C92.4467 10.2315 92.6214 10.9517 92.9709 11.5312C93.3203 12.1108 93.8445 12.5455 94.5433 12.8352C95.2422 13.125 96.12 13.2699 97.1768 13.2699H103.185V17.7188H96.282C94.2791 17.7188 92.5661 17.3864 91.1428 16.7216C89.7195 16.0568 88.6328 15.1023 87.8828 13.858C87.1328 12.6051 86.7578 11.1094 86.7578 9.37074C86.7578 7.64062 87.1243 6.13636 87.8572 4.85795C88.5987 3.57102 89.6683 2.57812 91.0661 1.87926C92.4723 1.17187 94.1641 0.818181 96.1413 0.818181H106.458V27ZM92.3317 15.0852H98.3018L91.9354 27H85.8246L92.3317 15.0852Z" fill="url(#paint1_linear_388_69)" fill-opacity="0.6"/>
<defs>
<linearGradient id="paint0_linear_388_69" x1="-2" y1="-6" x2="76.2041" y2="17.1376" gradientUnits="userSpaceOnUse">
<stop stop-color="#FFC700"/>
<stop offset="1" stop-color="#FFC700" stop-opacity="0"/>
</linearGradient>
<linearGradient id="paint1_linear_388_69" x1="109" y1="24.2703" x2="37.3361" y2="23.1972" gradientUnits="userSpaceOnUse">
<stop stop-color="#109635"/>
<stop offset="1" stop-color="#076621" stop-opacity="0"/>
<stop offset="1" stop-color="#109635" stop-opacity="0"/>
</linearGradient>
</defs>
</svg>
